<svg xmlns="http://www.w3.org/2000/svg" width="1200" height="630" viewBox="0 0 1200 630" fill="none">
  
  <defs>
    <linearGradient id="brand" x1="0" y1="0" x2="1200" y2="630" gradientUnits="userSpaceOnUse">
      <stop offset="0%" stop-color="#ff2e88" />
      <stop offset="55%" stop-color="#18d9c0" />
      <stop offset="100%" stop-color="#c2ff3d" />
    </linearGradient>
    <linearGradient id="mark" x1="0" y1="0" x2="64" y2="64" gradientUnits="userSpaceOnUse">
      <stop offset="0%" stop-color="#ff2e88" />
      <stop offset="55%" stop-color="#18d9c0" />
      <stop offset="100%" stop-color="#c2ff3d" />
    </linearGradient>
    <radialGradient id="glowPink" cx="50%" cy="50%" r="50%">
      <stop offset="0%" stop-color="#ff2e88" stop-opacity="0.4" />
      <stop offset="100%" stop-color="#ff2e88" stop-opacity="0" />
    </radialGradient>
    <radialGradient id="glowLime" cx="50%" cy="50%" r="50%">
      <stop offset="0%" stop-color="#c2ff3d" stop-opacity="0.32" />
      <stop offset="100%" stop-color="#c2ff3d" stop-opacity="0" />
    </radialGradient>
    <radialGradient id="glowTeal" cx="50%" cy="50%" r="50%">
      <stop offset="0%" stop-color="#18d9c0" stop-opacity="0.3" />
      <stop offset="100%" stop-color="#18d9c0" stop-opacity="0" />
    </radialGradient>
    <pattern id="tri" width="30" height="30" patternUnits="userSpaceOnUse">
      <path d="M11 9 L19 14 L11 19 Z" fill="#ffffff" fill-opacity="0.035" />
    </pattern>
  </defs>
  <rect width="1200" height="630" fill="#0a0912" />
  <rect width="1200" height="630" fill="url(#tri)" />

  <circle cx="140" cy="110" r="320" fill="url(#glowPink)" />
  <circle cx="1080" cy="540" r="340" fill="url(#glowLime)" />
  <circle cx="1060" cy="90" r="280" fill="url(#glowTeal)" />

  <rect x="0" y="0" width="1200" height="6" fill="url(#brand)" />

  
  <g transform="translate(190 120) rotate(-8)">
    <rect x="-84" y="-26" width="168" height="56" rx="16" fill="#000000" fill-opacity="0.35" transform="translate(0 6)" />
    <rect x="-84" y="-26" width="168" height="56" rx="16" fill="#ff2e88" />
    <text x="0" y="9" text-anchor="middle" font-family="'Bricolage Grotesque', 'Helvetica Neue', Helvetica, Arial, sans-serif" font-size="28" font-weight="800" letter-spacing="-0.5" fill="#ffffff">Show up</text>
  </g>
  
  <g transform="translate(1010 100) rotate(7)">
    <rect x="-55" y="-26" width="110" height="56" rx="16" fill="#000000" fill-opacity="0.35" transform="translate(0 6)" />
    <rect x="-55" y="-26" width="110" height="56" rx="16" fill="#18d9c0" />
    <text x="0" y="9" text-anchor="middle" font-family="'Bricolage Grotesque', 'Helvetica Neue', Helvetica, Arial, sans-serif" font-size="28" font-weight="800" letter-spacing="-0.5" fill="#ffffff">Play</text>
  </g>
  
  <g transform="translate(300 500) rotate(-7)">
    <rect x="-55" y="-26" width="110" height="56" rx="16" fill="#000000" fill-opacity="0.35" transform="translate(0 6)" />
    <rect x="-55" y="-26" width="110" height="56" rx="16" fill="#c2ff3d" />
    <text x="0" y="9" text-anchor="middle" font-family="'Bricolage Grotesque', 'Helvetica Neue', Helvetica, Arial, sans-serif" font-size="28" font-weight="800" letter-spacing="-0.5" fill="#0a0912">Earn</text>
  </g>
  
  <g transform="translate(880 485) rotate(8)">
    <rect x="-75" y="-26" width="150" height="56" rx="16" fill="#000000" fill-opacity="0.35" transform="translate(0 6)" />
    <rect x="-75" y="-26" width="150" height="56" rx="16" fill="#ff7a3d" />
    <text x="0" y="9" text-anchor="middle" font-family="'Bricolage Grotesque', 'Helvetica Neue', Helvetica, Arial, sans-serif" font-size="28" font-weight="800" letter-spacing="-0.5" fill="#ffffff">Collect</text>
  </g>

  <g transform="translate(600 300)">
    <rect x="-450" y="-58" width="900" height="116" rx="34" fill="#15121f" stroke="#ffffff" stroke-opacity="0.06" stroke-width="1" />
    <text x="0" y="14" text-anchor="middle" font-family="'Bricolage Grotesque', 'Helvetica Neue', Helvetica, Arial, sans-serif" font-size="48" font-weight="800" letter-spacing="-1.5" fill="#ffffff">Turn venues into onchain arenas.</text>
  </g>

  <g transform="translate(468 540)">
    
  <g transform="scale(1.625)">
    <rect x="0" y="0" width="32" height="32" rx="9" fill="url(#mark)" />
    <path d="M16 7.4a6.1 6.1 0 0 1 6.1 6.1c0 4.3-6.1 10.8-6.1 10.8S9.9 17.8 9.9 13.5A6.1 6.1 0 0 1 16 7.4z" fill="#ffffff" />
    <path d="M14.4 10.9v5.2l4.4-2.6z" fill="#ff2e88" />
  </g>
  <text x="66.5" y="49.085" font-family="'Bricolage Grotesque', 'Helvetica Neue', Helvetica, Arial, sans-serif" font-size="44" font-weight="800" letter-spacing="-2" fill="#ffffff">Playces</text>
  <rect x="218" y="34" width="13" height="13" rx="3" fill="url(#brand)" />
  </g>
</svg>